General
Complete name                    : The Last Temptation of Christ.mkv
Format                           : Matroska
File size                        : 3.38 GiB
Duration                         : 2h 36mn
Overall bit rate                 : 3 093 Kbps


Video
ID                               : 1
Format                           : AVC
Duration                         : 2h 36mn
Bit rate                         : 2 135 Kbps
Width                            : 710 pixels
Height                           : 554 pixels
Display aspect ratio             : 16:9
Original display aspect ratio    : 16:9
Frame rate                       : 25.000 fps
Resolution                       : 8 bits
Colorimetry                      : 4:2:0
Scan type                        : Progressive
Bits/(Pixel*Frame)               : 0.217
Stream size                      : 2.33 GiB (69%)
Writing library                  : x264 core 79


Audio #1
ID                               : 2
Format                           : AC-3
Format/Info                      : Audio Coding 3
Codec ID                         : A_AC3
Duration                         : 2h 36mn
Bit rate mode                    : Constant
Bit rate                         : 384 Kbps
Channel(s)                       : 6 channels
Channel positions                : Front: L C R, Surround: L R, LFE
Sampling rate                    : 48.0 KHz
Stream size                      : 430 MiB (12%)
Language                         : English

Audio #2
ID                               : 3
Format                           : MPEG Audio
Format version                   : Version 1
Format profile                   : Layer 3
Mode                             : Joint stereo / MS Stereo
Codec ID                         : A_MPEG/L3
Codec ID/Hint                    : MP3
Duration                         : 2h 36mn
Bit rate mode                    : Constant
Bit rate                         : 128 Kbps
Channel(s)                       : 2 channels
Sampling rate                    : 48.0 KHz
Stream size                      : 143 MiB (4%)
Writing library                  : LAME3.98
Language                         : German

Audio #3
ID                               : 4
Format                           : MPEG Audio
Format version                   : Version 1
Format profile                   : Layer 3
Mode                             : Joint stereo / MS Stereo
Codec ID                         : A_MPEG/L3
Codec ID/Hint                    : MP3
Duration                         : 2h 36mn
Bit rate mode                    : Constant
Bit rate                         : 128 Kbps
Channel(s)                       : 2 channels
Sampling rate                    : 48.0 KHz
Stream size                      : 143 MiB (4%)
Writing library                  : LAME3.98
Language                         : Italian

Audio #4
ID                               : 5
Format                           : MPEG Audio
Format version                   : Version 1
Format profile                   : Layer 3
Mode                             : Joint stereo / MS Stereo
Codec ID                         : A_MPEG/L3
Codec ID/Hint                    : MP3
Duration                         : 2h 36mn
Bit rate mode                    : Constant
Bit rate                         : 128 Kbps
Channel(s)                       : 2 channels
Sampling rate                    : 48.0 KHz
Stream size                      : 143 MiB (4%)
Writing library                  : LAME3.98
Language                         : French

Audio #5
ID                               : 6
Format                           : MPEG Audio
Format version                   : Version 1
Format profile                   : Layer 3
Mode                             : Joint stereo / MS Stereo
Codec ID                         : A_MPEG/L3
Codec ID/Hint                    : MP3
Duration                         : 2h 36mn
Bit rate mode                    : Constant
Bit rate                         : 128 Kbps
Channel(s)                       : 2 channels
Sampling rate                    : 48.0 KHz
Stream size                      : 143 MiB (4%)
Writing library                  : LAME3.98
Language                         : Spanish

Text #1
Language                         : English

Text #2
Language                         : French

Text #3
Language                         : Portuguese

Text #4
Language                         : Danish

Text #5
Language                         : Finnish

Text #6
Language                         : Swedish

Text #7
Language                         : Norwegian

Text #8
Language                         : German

Text #9
Language                         : Dutch

Text #10
Language                         : Czech

Text #11
Language                         : Polish

Text #12
Language                         : Turkish

Text #13
Language                         : Hungarian

Text #14
Language                         : Bulgarian


